<svg xmlns="http://www.w3.org/2000/svg" viewBox="0 0 628 628"><defs><style>.cls-1{fill:#4d70f1;}.cls-2{fill:#dfdfdf;}.cls-3{fill:#efefef;}.cls-4{fill:#2541a7;}.cls-5{fill:#f96e36;}.cls-6{fill:none;stroke:#efefef;stroke-linecap:round;stroke-linejoin:round;stroke-width:15px;}</style></defs><title>join in</title><g id="Layer_2" data-name="Layer 2"><g id="Layer_1-2" data-name="Layer 1"><circle class="cls-1" cx="314" cy="314" r="314"/><path class="cls-2" d="M317.79,411.45h0a62.69,62.69,0,0,1,62.69,62.69v56a35.24,35.24,0,0,1-35.24,35.24H290.33a35.24,35.24,0,0,1-35.24-35.24v-56a62.69,62.69,0,0,1,62.69-62.69Z"/><path class="cls-2" d="M317.68,447.5a61.58,61.58,0,1,1,61.58-61.58A61.65,61.65,0,0,1,317.68,447.5Z"/><path class="cls-1" d="M317.68,331.85a54.08,54.08,0,1,1-54.08,54.08,54.08,54.08,0,0,1,54.08-54.08m0-15a69.08,69.08,0,1,0,69.08,69.08,69.15,69.15,0,0,0-69.08-69.08Z"/><path class="cls-3" d="M420.94,391.7h50.41a23.13,23.13,0,0,1,23.13,23.13v54.37a41.15,41.15,0,0,1-41.15,41.15H439a41.15,41.15,0,0,1-41.15-41.15V414.83a23.13,23.13,0,0,1,23.13-23.13Z" transform="translate(892.3 902.06) rotate(-180)"/><path class="cls-3" d="M446.23,418.5A46.48,46.48,0,1,1,492.71,372,46.53,46.53,0,0,1,446.23,418.5Z"/><path class="cls-1" d="M446.23,333a39,39,0,1,1-39,39,39,39,0,0,1,39-39m0-15a54,54,0,1,0,54,54,54,54,0,0,0-54-54Z"/><path class="cls-3" d="M164.94,391.7h50.41a23.13,23.13,0,0,1,23.13,23.13v54.37a41.15,41.15,0,0,1-41.15,41.15H183a41.15,41.15,0,0,1-41.15-41.15V414.83a23.13,23.13,0,0,1,23.13-23.13Z" transform="translate(380.3 902.06) rotate(-180)"/><path class="cls-3" d="M190.23,418.5A46.48,46.48,0,1,1,236.71,372,46.53,46.53,0,0,1,190.23,418.5Z"/><path class="cls-1" d="M190.23,333a39,39,0,1,1-39,39,39,39,0,0,1,39-39m0-15a54,54,0,1,0,54,54,54,54,0,0,0-54-54Z"/><rect class="cls-4" x="350.86" y="144" width="191.27" height="114.63" rx="36.74" ry="36.74" transform="translate(892.98 402.63) rotate(-180)"/><polygon class="cls-4" points="382.68 246 382.68 306.32 443 246 382.68 246"/><rect class="cls-5" x="80.46" y="126" width="248.09" height="148.68" rx="36.74" ry="36.74"/><circle class="cls-3" cx="158.22" cy="201.01" r="8.91"/><path class="cls-3" d="M158.22,216a15,15,0,1,1,15-15A15,15,0,0,1,158.22,216Zm0-17.81A2.8,2.8,0,1,0,161,201,2.81,2.81,0,0,0,158.22,198.21Z"/><circle class="cls-3" cx="205.79" cy="201.01" r="8.91"/><path class="cls-3" d="M205.79,216a15,15,0,1,1,15-15A15,15,0,0,1,205.79,216Zm0-17.81a2.8,2.8,0,1,0,2.8,2.8A2.81,2.81,0,0,0,205.79,198.21Z"/><circle class="cls-3" cx="255.35" cy="201.01" r="8.91"/><path class="cls-3" d="M255.35,216a15,15,0,1,1,15-15A15,15,0,0,1,255.35,216Zm0-17.81a2.8,2.8,0,1,0,2.8,2.8A2.81,2.81,0,0,0,255.35,198.21Z"/><polygon class="cls-5" points="255.46 257.76 255.46 336 177.22 257.76 255.46 257.76"/><polyline class="cls-6" points="410 207.79 424.82 223 489.06 181"/></g></g></svg>