<svg xmlns="http://www.w3.org/2000/svg" viewBox="0 0 628 628"><defs><style>.cls-1{fill:#4d70f1;}.cls-2{fill:#fcee5c;}.cls-3{fill:#e8d64f;}.cls-4,.cls-6,.cls-7{fill:none;stroke-linecap:round;stroke-linejoin:round;}.cls-4{stroke:#f96e36;stroke-width:7px;}.cls-5{fill:#2541a7;}.cls-6{stroke:#dfdfdf;}.cls-6,.cls-7{stroke-width:15px;}.cls-7{stroke:#efefef;}</style></defs><title>informed</title><g id="Layer_2" data-name="Layer 2"><g id="Layer_1-2" data-name="Layer 1"><circle class="cls-1" cx="314" cy="314" r="314"/><path class="cls-2" d="M410.5,290.06a98.07,98.07,0,0,0-92.27-97.89c-61.7-3.59-109,45.28-103.45,106.83a97.42,97.42,0,0,0,11.78,38.42c19.74,35.7,30.72,75.58,30.72,116.37v.09a.11.11,0,0,0,.11.11H367.48a.11.11,0,0,0,.11-.11v-5c0-38.76,10.77-76.58,30-110.22A97.6,97.6,0,0,0,410.5,290.06Z"/><path class="cls-3" d="M215.07,299a97.42,97.42,0,0,0,11.78,38.42c19.74,35.7,30.72,75.58,30.72,116.37v.09a.11.11,0,0,0,.11.11h55V192C253.88,191.68,209.68,239.39,215.07,299Z"/><path class="cls-4" d="M358,338c-7.25,0-7.25-20-14.5-20s-7.25,20-14.49,20-7.25-20-14.5-20-7.25,20-14.5,20-7.25-20-14.51-20-7.25,20-14.51,20"/><line class="cls-4" x1="271" y1="338" x2="300.13" y2="454"/><line class="cls-4" x1="358" y1="338" x2="328.87" y2="454"/><path class="cls-5" d="M257,454H368a0,0,0,0,1,0,0v78.64A22.36,22.36,0,0,1,345.64,555H279.56A22.56,22.56,0,0,1,257,532.44V454A0,0,0,0,1,257,454Z"/><line class="cls-6" x1="314" y1="130" x2="314" y2="66"/><line class="cls-7" x1="489.75" y1="305.25" x2="553.75" y2="305.25"/><line class="cls-7" x1="74.75" y1="305.75" x2="138.75" y2="305.75"/><line class="cls-6" x1="226.28" y1="153.64" x2="194.28" y2="98.21"/><line class="cls-7" x1="466.11" y1="217.53" x2="521.54" y2="185.53"/><line class="cls-6" x1="106.96" y1="425.47" x2="162.39" y2="393.47"/><line class="cls-6" x1="463.68" y1="395.9" x2="518.48" y2="428.95"/><line class="cls-7" x1="108.02" y1="182.05" x2="162.82" y2="215.1"/><line class="cls-6" x1="436.7" y1="100.27" x2="403.65" y2="155.07"/></g></g></svg>