<svg xmlns="http://www.w3.org/2000/svg" viewBox="0 0 628 628"><defs><style>.cls-1{fill:#4d70f1;}.cls-2{fill:#2541a7;}.cls-3{fill:#f96e36;}.cls-4{fill:#fcee5c;}.cls-5{fill:#dfdfdf;}.cls-6{fill:#efefef;}</style></defs><title>agenda</title><g id="Layer_2" data-name="Layer 2"><g id="Layer_1-2" data-name="Layer 1"><circle class="cls-1" cx="314" cy="314" r="314"/><path class="cls-2" d="M262.94,176H483a15,15,0,0,1,15,15v34.77a15,15,0,0,1-15,15H271.19a23.26,23.26,0,0,1-23.26-23.26V191A15,15,0,0,1,262.94,176Z"/><path class="cls-3" d="M262.94,252.61H483a15,15,0,0,1,15,15v34.77a15,15,0,0,1-15,15H271.19a23.26,23.26,0,0,1-23.26-23.26V267.61A15,15,0,0,1,262.94,252.61Z"/><path class="cls-4" d="M262.94,329.23H483a15,15,0,0,1,15,15V379a15,15,0,0,1-15,15H271.19a23.26,23.26,0,0,1-23.26-23.26V344.23A15,15,0,0,1,262.94,329.23Z"/><rect class="cls-5" x="149" y="119" width="318" height="396" rx="35.37" ry="35.37"/><path class="cls-6" d="M184.37,119H220a0,0,0,0,1,0,0V515a0,0,0,0,1,0,0H184.37A35.37,35.37,0,0,1,149,479.63V154.37A35.37,35.37,0,0,1,184.37,119Z"/><path class="cls-2" d="M177,206.5c0,2.44-8.77,9.5-25.5,9.5s-25.5-7.06-25.5-9.5c0-2.26,7.56-8.49,22-9.38v-10c-18,1-32,9.28-32,19.4,0,10.77,15.89,19.5,35.5,19.5s35.5-8.73,35.5-19.5c0-.17,0-.33,0-.5H176.9A1.49,1.49,0,0,1,177,206.5Z"/><path class="cls-2" d="M177,287.5c0,2.44-8.77,9.5-25.5,9.5s-25.5-7.06-25.5-9.5c0-2.26,7.56-8.49,22-9.38v-10c-18,1-32,9.28-32,19.4,0,10.77,15.89,19.5,35.5,19.5s35.5-8.73,35.5-19.5c0-.17,0-.33,0-.5H176.9A1.49,1.49,0,0,1,177,287.5Z"/><path class="cls-2" d="M177,368.5c0,2.44-8.77,9.5-25.5,9.5s-25.5-7.06-25.5-9.5c0-2.26,7.56-8.49,22-9.38v-10c-18,1-32,9.28-32,19.4,0,10.77,15.89,19.5,35.5,19.5s35.5-8.73,35.5-19.5c0-.17,0-.33,0-.5H176.9A1.49,1.49,0,0,1,177,368.5Z"/><path class="cls-2" d="M177,449.5c0,2.44-8.77,9.5-25.5,9.5s-25.5-7.06-25.5-9.5c0-2.26,7.56-8.49,22-9.38v-10c-18,1-32,9.28-32,19.4,0,10.77,15.89,19.5,35.5,19.5s35.5-8.73,35.5-19.5c0-.17,0-.33,0-.5H176.9A1.49,1.49,0,0,1,177,449.5Z"/><polygon class="cls-3" points="308 334 278 287 248 334 248 118 308 118 308 334"/></g></g></svg>